# xmcd
#
# Track frame offsets:
#	150
#	22295
#	36921
#	59592
#	77995
#	91322
#	113953
#	138386
#	155127
#	179067
#
# Disc length: 2671 seconds
#
# Revision: 1
# Processed by: cddbd v1.5PL3 Copyright (c) Steve Scherf et al.
# Submitted via: audiograbber 1.83.01
#
DISCID=950a6d0a
DTITLE=Al King - It's Rough Out Here
DYEAR=1998
DGENRE=blues
TTITLE0=It's Rough Out Here
TTITLE1=Ain't giving Up Nothing
TTITLE2=Peoples In The Graveyard
TTITLE3=Don't throw Rocks
TTITLE4=Sweet Jimmy's Place
TTITLE5=You Can't Trust Nobody
TTITLE6=My Baby Loves Playing Bingo
TTITLE7=Better To Be By Yourself
TTITLE8=(I'm A)  Lazy Man
TTITLE9=Tomorrow Ain't Promise To You
EXTD=Forevermore Music and Records, Inc.
EXTT0=
EXTT1=
EXTT2=
EXTT3=
EXTT4=
EXTT5=
EXTT6=
EXTT7=
EXTT8=
EXTT9=
PLAYORDER=
